<svg xmlns="http://www.w3.org/2000/svg" viewBox="0 0 512 512">
  <defs>
    <linearGradient id="bg" x1="0" y1="0" x2="1" y2="1">
      <stop offset="0" stop-color="#1d5350"/>
      <stop offset="1" stop-color="#102f36"/>
    </linearGradient>
    <linearGradient id="leaf" x1="0" y1="1" x2="1" y2="0">
      <stop offset="0" stop-color="#bde8c3"/>
      <stop offset="1" stop-color="#f4f3d2"/>
    </linearGradient>
  </defs>
  <rect width="512" height="512" rx="116" fill="url(#bg)"/>
  <circle cx="256" cy="256" r="170" fill="#f7faf7" opacity=".08"/>
  <path d="M132 330c43-4 75-19 99-47 26-31 42-71 61-112 15-31 31-50 57-58 17-6 34-5 47 1-2 29-15 54-39 72-20 15-43 23-68 24-17 1-31 6-42 18-26 29-42 72-76 91-21 12-48 16-79 11z" fill="url(#leaf)"/>
  <path d="M141 354c44-45 87-78 127-99 37-19 71-32 111-48" fill="none" stroke="#173f3f" stroke-width="14" stroke-linecap="round"/>
  <circle cx="141" cy="354" r="15" fill="#dff2df"/>
  <circle cx="379" cy="207" r="15" fill="#dff2df"/>
  <path d="M154 397h204" stroke="#dff2df" stroke-width="11" stroke-linecap="round" opacity=".9"/>
</svg>
